<mxfile host="Electron" modified="2024-03-24T08:39:46.961Z" agent="Mozilla/5.0 (X11; Linux x86_64) AppleWebKit/537.36 (KHTML, like Gecko) draw.io/24.0.4 Chrome/120.0.6099.109 Electron/28.1.0 Safari/537.36" etag="F7TZ5LawMm2kC-ANPT4O" version="24.0.4" type="device">
  <diagram name="Page-1" id="QuHllLP9K7-jnlvQ6Ukh">
    <mxGraphModel dx="1434" dy="838" grid="1" gridSize="10" guides="1" tooltips="1" connect="1" arrows="1" fold="1" page="1" pageScale="1" pageWidth="850" pageHeight="1100" math="0" shadow="0">
      <root>
        <mxCell id="0" />
        <mxCell id="1" parent="0" />
        <mxCell id="Nf_2ZjgTi6wfDMKCGbLz-1" value="Client" style="shape=umlLifeline;perimeter=lifelinePerimeter;whiteSpace=wrap;html=1;container=1;dropTarget=0;collapsible=0;recursiveResize=0;outlineConnect=0;portConstraint=eastwest;newEdgeStyle={&quot;curved&quot;:0,&quot;rounded&quot;:0};" vertex="1" parent="1">
          <mxGeometry x="60" y="80" width="100" height="520" as="geometry" />
        </mxCell>
        <mxCell id="Nf_2ZjgTi6wfDMKCGbLz-2" value="Service" style="shape=umlLifeline;perimeter=lifelinePerimeter;whiteSpace=wrap;html=1;container=1;dropTarget=0;collapsible=0;recursiveResize=0;outlineConnect=0;portConstraint=eastwest;newEdgeStyle={&quot;curved&quot;:0,&quot;rounded&quot;:0};" vertex="1" parent="1">
          <mxGeometry x="240" y="80" width="100" height="520" as="geometry" />
        </mxCell>
        <mxCell id="Nf_2ZjgTi6wfDMKCGbLz-4" value="" style="html=1;points=[[0,0,0,0,5],[0,1,0,0,-5],[1,0,0,0,5],[1,1,0,0,-5]];perimeter=orthogonalPerimeter;outlineConnect=0;targetShapes=umlLifeline;portConstraint=eastwest;newEdgeStyle={&quot;curved&quot;:0,&quot;rounded&quot;:0};" vertex="1" parent="Nf_2ZjgTi6wfDMKCGbLz-2">
          <mxGeometry x="45" y="80" width="10" height="80" as="geometry" />
        </mxCell>
        <mxCell id="Nf_2ZjgTi6wfDMKCGbLz-6" value="" style="html=1;points=[[0,0,0,0,5],[0,1,0,0,-5],[1,0,0,0,5],[1,1,0,0,-5]];perimeter=orthogonalPerimeter;outlineConnect=0;targetShapes=umlLifeline;portConstraint=eastwest;newEdgeStyle={&quot;curved&quot;:0,&quot;rounded&quot;:0};" vertex="1" parent="Nf_2ZjgTi6wfDMKCGbLz-2">
          <mxGeometry x="45" y="180" width="10" height="40" as="geometry" />
        </mxCell>
        <mxCell id="Nf_2ZjgTi6wfDMKCGbLz-7" value="Handle request" style="html=1;align=left;spacingLeft=2;endArrow=block;rounded=0;edgeStyle=orthogonalEdgeStyle;curved=0;rounded=0;" edge="1" target="Nf_2ZjgTi6wfDMKCGbLz-6" parent="Nf_2ZjgTi6wfDMKCGbLz-2">
          <mxGeometry relative="1" as="geometry">
            <mxPoint x="50" y="160" as="sourcePoint" />
            <Array as="points">
              <mxPoint x="80" y="190" />
            </Array>
          </mxGeometry>
        </mxCell>
        <mxCell id="Nf_2ZjgTi6wfDMKCGbLz-8" value="" style="html=1;points=[[0,0,0,0,5],[0,1,0,0,-5],[1,0,0,0,5],[1,1,0,0,-5]];perimeter=orthogonalPerimeter;outlineConnect=0;targetShapes=umlLifeline;portConstraint=eastwest;newEdgeStyle={&quot;curved&quot;:0,&quot;rounded&quot;:0};" vertex="1" parent="Nf_2ZjgTi6wfDMKCGbLz-2">
          <mxGeometry x="45" y="240" width="10" height="40" as="geometry" />
        </mxCell>
        <mxCell id="Nf_2ZjgTi6wfDMKCGbLz-9" value="Validation" style="html=1;align=left;spacingLeft=2;endArrow=block;rounded=0;edgeStyle=orthogonalEdgeStyle;curved=0;rounded=0;" edge="1" target="Nf_2ZjgTi6wfDMKCGbLz-8" parent="Nf_2ZjgTi6wfDMKCGbLz-2">
          <mxGeometry relative="1" as="geometry">
            <mxPoint x="50" y="220" as="sourcePoint" />
            <Array as="points">
              <mxPoint x="80" y="250" />
            </Array>
          </mxGeometry>
        </mxCell>
        <mxCell id="Nf_2ZjgTi6wfDMKCGbLz-13" value="" style="html=1;points=[[0,0,0,0,5],[0,1,0,0,-5],[1,0,0,0,5],[1,1,0,0,-5]];perimeter=orthogonalPerimeter;outlineConnect=0;targetShapes=umlLifeline;portConstraint=eastwest;newEdgeStyle={&quot;curved&quot;:0,&quot;rounded&quot;:0};" vertex="1" parent="Nf_2ZjgTi6wfDMKCGbLz-2">
          <mxGeometry x="45" y="340" width="10" height="80" as="geometry" />
        </mxCell>
        <mxCell id="Nf_2ZjgTi6wfDMKCGbLz-14" value="" style="html=1;points=[[0,0,0,0,5],[0,1,0,0,-5],[1,0,0,0,5],[1,1,0,0,-5]];perimeter=orthogonalPerimeter;outlineConnect=0;targetShapes=umlLifeline;portConstraint=eastwest;newEdgeStyle={&quot;curved&quot;:0,&quot;rounded&quot;:0};" vertex="1" parent="Nf_2ZjgTi6wfDMKCGbLz-2">
          <mxGeometry x="45" y="440" width="10" height="40" as="geometry" />
        </mxCell>
        <mxCell id="Nf_2ZjgTi6wfDMKCGbLz-15" value="Prepare response" style="html=1;align=left;spacingLeft=2;endArrow=block;rounded=0;edgeStyle=orthogonalEdgeStyle;curved=0;rounded=0;" edge="1" target="Nf_2ZjgTi6wfDMKCGbLz-14" parent="Nf_2ZjgTi6wfDMKCGbLz-2">
          <mxGeometry relative="1" as="geometry">
            <mxPoint x="55" y="420" as="sourcePoint" />
            <Array as="points">
              <mxPoint x="85" y="450" />
            </Array>
          </mxGeometry>
        </mxCell>
        <mxCell id="Nf_2ZjgTi6wfDMKCGbLz-3" value="DB" style="shape=umlLifeline;perimeter=lifelinePerimeter;whiteSpace=wrap;html=1;container=1;dropTarget=0;collapsible=0;recursiveResize=0;outlineConnect=0;portConstraint=eastwest;newEdgeStyle={&quot;curved&quot;:0,&quot;rounded&quot;:0};" vertex="1" parent="1">
          <mxGeometry x="425" y="80" width="100" height="520" as="geometry" />
        </mxCell>
        <mxCell id="Nf_2ZjgTi6wfDMKCGbLz-10" value="" style="html=1;points=[[0,0,0,0,5],[0,1,0,0,-5],[1,0,0,0,5],[1,1,0,0,-5]];perimeter=orthogonalPerimeter;outlineConnect=0;targetShapes=umlLifeline;portConstraint=eastwest;newEdgeStyle={&quot;curved&quot;:0,&quot;rounded&quot;:0};" vertex="1" parent="Nf_2ZjgTi6wfDMKCGbLz-3">
          <mxGeometry x="45" y="270" width="10" height="80" as="geometry" />
        </mxCell>
        <mxCell id="Nf_2ZjgTi6wfDMKCGbLz-5" value="request" style="html=1;verticalAlign=bottom;startArrow=oval;endArrow=block;startSize=8;curved=0;rounded=0;entryX=0;entryY=0;entryDx=0;entryDy=5;" edge="1" target="Nf_2ZjgTi6wfDMKCGbLz-4" parent="1" source="Nf_2ZjgTi6wfDMKCGbLz-1">
          <mxGeometry x="0.0028" relative="1" as="geometry">
            <mxPoint x="215" y="165" as="sourcePoint" />
            <mxPoint as="offset" />
          </mxGeometry>
        </mxCell>
        <mxCell id="Nf_2ZjgTi6wfDMKCGbLz-11" value="query" style="html=1;verticalAlign=bottom;endArrow=block;curved=0;rounded=0;entryX=1;entryY=0;entryDx=0;entryDy=5;" edge="1" target="Nf_2ZjgTi6wfDMKCGbLz-10" parent="1" source="Nf_2ZjgTi6wfDMKCGbLz-8">
          <mxGeometry relative="1" as="geometry">
            <mxPoint x="290" y="365" as="sourcePoint" />
          </mxGeometry>
        </mxCell>
        <mxCell id="Nf_2ZjgTi6wfDMKCGbLz-12" value="response" style="html=1;verticalAlign=bottom;endArrow=open;dashed=1;endSize=8;curved=0;rounded=0;exitX=1;exitY=1;exitDx=0;exitDy=-5;" edge="1" source="Nf_2ZjgTi6wfDMKCGbLz-10" parent="1" target="Nf_2ZjgTi6wfDMKCGbLz-2">
          <mxGeometry relative="1" as="geometry">
            <mxPoint x="300" y="430" as="targetPoint" />
          </mxGeometry>
        </mxCell>
        <mxCell id="Nf_2ZjgTi6wfDMKCGbLz-16" value="response" style="html=1;verticalAlign=bottom;startArrow=oval;startFill=1;endArrow=block;startSize=8;curved=0;rounded=0;" edge="1" parent="1" target="Nf_2ZjgTi6wfDMKCGbLz-1">
          <mxGeometry width="60" relative="1" as="geometry">
            <mxPoint x="290" y="560" as="sourcePoint" />
            <mxPoint x="350" y="560" as="targetPoint" />
          </mxGeometry>
        </mxCell>
      </root>
    </mxGraphModel>
  </diagram>
</mxfile>
